<?xml version="1.0" encoding="UTF-8" standalone="no" ?>
<!DOCTYPE svg PUBLIC "-//W3C//DTD SVG 1.1//EN" "http://www.w3.org/Graphics/SVG/1.1/DTD/svg11.dtd">
<svg xmlns="http://www.w3.org/2000/svg" xmlns:xlink="http://www.w3.org/1999/xlink" version="1.1" width="210" height="137" viewBox="1 1 210 137" xml:space="preserve">
<desc>Created with Fabric.js 4.6.0</desc>
<defs>
</defs>
<g transform="matrix(1 0 0 1 106.93 108.84)" id="8bLQeTWSMYtitFi7iB-94"  >
<path style="stroke: rgb(0,0,0); stroke-width: 2; stroke-dasharray: none; stroke-linecap: butt; stroke-dashoffset: 0; stroke-linejoin: miter; stroke-miterlimit: 4; fill: none; fill-rule: nonzero; opacity: 1;" vector-effect="non-scaling-stroke"  transform=" translate(0, 0)" d="M 0 -22.10884 C 12.20408 -22.10884 22.10884 -12.204080000000001 22.10884 0 C 22.10884 12.20408 12.204080000000001 22.10884 0 22.10884 C -12.20408 22.10884 -22.10884 12.204080000000001 -22.10884 0 C -22.10884 -12.20408 -12.204080000000001 -22.10884 0 -22.10884 z" stroke-linecap="round" />
</g>
<g transform="matrix(1 0 0 1 181.54 108.84)" id="pbHROit8TZXSmEEKCcGUv"  >
<path style="stroke: rgb(0,0,0); stroke-width: 2; stroke-dasharray: none; stroke-linecap: butt; stroke-dashoffset: 0; stroke-linejoin: miter; stroke-miterlimit: 4; fill: none; fill-rule: nonzero; opacity: 1;" vector-effect="non-scaling-stroke"  transform=" translate(-22.11, -22.11)" d="M 22.10884 0 C 34.31292 0 44.21768 9.90476 44.21768 22.10884 C 44.21768 34.31292 34.312920000000005 44.21768 22.10884 44.21768 C 9.904760000000001 44.21768 0 34.312920000000005 0 22.10884 C 0 9.904760000000001 9.90476 0 22.10884 0 z" stroke-linecap="round" />
</g>
<g transform="matrix(1 0 0 1 106.93 30.4)" id="m_YQkFA5-7wFqZ-sy51uF"  >
<path style="stroke: rgb(0,0,0); stroke-width: 2; stroke-dasharray: none; stroke-linecap: butt; stroke-dashoffset: 0; stroke-linejoin: miter; stroke-miterlimit: 4; fill: rgb(0,0,0); fill-rule: nonzero; opacity: 1;" vector-effect="non-scaling-stroke"  transform=" translate(0, 0)" d="M 0 -22.10884 C 12.20408 -22.10884 22.10884 -12.204080000000001 22.10884 0 C 22.10884 12.20408 12.204080000000001 22.10884 0 22.10884 C -12.20408 22.10884 -22.10884 12.204080000000001 -22.10884 0 C -22.10884 -12.20408 -12.204080000000001 -22.10884 0 -22.10884 z" stroke-linecap="round" />
</g>
<g transform="matrix(1 0 0 1 30.2 108.84)" id="YndKLklqQcQj2pz98a9o0"  >
<path style="stroke: rgb(0,0,0); stroke-width: 2; stroke-dasharray: none; stroke-linecap: butt; stroke-dashoffset: 0; stroke-linejoin: miter; stroke-miterlimit: 4; fill: none; fill-rule: nonzero; opacity: 1;" vector-effect="non-scaling-stroke"  transform=" translate(0, 0)" d="M 0 -22.10884 C 12.20408 -22.10884 22.10884 -12.204080000000001 22.10884 0 C 22.10884 12.20408 12.204080000000001 22.10884 0 22.10884 C -12.20408 22.10884 -22.10884 12.204080000000001 -22.10884 0 C -22.10884 -12.20408 -12.204080000000001 -22.10884 0 -22.10884 z" stroke-linecap="round" />
</g>
<g transform="matrix(1.02 0 0 1.02 76.28 59.65)" id="bk-zMCvlIlAQWjnkz5iNK"  >
<path style="stroke: rgb(0,0,0); stroke-width: 3; stroke-dasharray: none; stroke-linecap: butt; stroke-dashoffset: 0; stroke-linejoin: miter; stroke-miterlimit: 4; fill: rgb(255,255,255); fill-opacity: 0; fill-rule: nonzero; opacity: 1;" vector-effect="non-scaling-stroke"  transform=" translate(0, 0)" d="M -31.36426 33.16327 L -7.408740000000002 7.833699999999997 L 31.36425 -33.16326000000001 L 31.36425 26.841179999999994" stroke-linecap="round" />
</g>
<g transform="matrix(0.98 0 0 0.98 137.2 58.92)" id="eDsDiQmP-gnYxFhbm0YrG"  >
<path style="stroke: rgb(0,0,0); stroke-width: 3; stroke-dasharray: none; stroke-linecap: butt; stroke-dashoffset: 0; stroke-linejoin: miter; stroke-miterlimit: 4; fill: rgb(255,255,255); fill-opacity: 0; fill-rule: nonzero; opacity: 1;" vector-effect="non-scaling-stroke"  transform=" translate(0, 0)" d="M -31.23608 -34.66327 L 31.236089999999997 34.66326000000001 z" stroke-linecap="round" />
</g>
</svg>